/* XPM */
static char *e024ed4b736940c19de1509b8c6791b81xfBuoccuqAa4ofE[] = {
/* columns rows colors chars-per-pixel */
"64 64 30 1 ",
"  c None",
". c #785A00",
"X c #B68E00",
"o c #B99100",
"O c #BC9400",
"+ c #BE9600",
"@ c #C19900",
"# c #C49C00",
"$ c #C69E00",
"% c #C9A100",
"& c #CCA400",
"* c #CEA600",
"= c #D1A900",
"- c #D4AC00",
"; c #D6AE00",
": c #D9B100",
"> c #DCB400",
", c #DEB600",
"< c #E1B900",
"1 c #E4BC00",
"2 c #E6BE00",
"3 c #E6BE14",
"4 c #E9C100",
"5 c #ECC400",
"6 c #EEC600",
"7 c #F1C900",
"8 c #F4CC00",
"9 c #F6CE00",
"0 c #F9D100",
"q c #FCD400",
/* pixels */
"                                                                ",
"                                                                ",
"                                                                ",
"                                                                ",
"                           ...........                          ",
"                       ...................                      ",
"                     ......00000000000......                    ",
"                   .....00003333333330000.....                  ",
"                 ....00033338888888883333000....                ",
"                ...000338888777777777888833000...               ",
"               ...00338877776666666667777883300...              ",
"             ...q0338877766666666666666677788330q...            ",
"            ...003     666664444444446666667788300...           ",
"           ...003       644422222222244466667788300...          ",
"           ..003         222222222222222446666788300..          ",
"          ..003           22<<<<<<<<<2222244666778300..         ",
"         ..q03             <<>>>>>>><<<22224466677830q..        ",
"        ...038             >>>>>>>>>>>><<2222466678830...       ",
"        ..0388             >>:::::::>>>>><<222466678830..       ",
"       ..00387             ::;;;;;;;:::>>><<222466678300..      ",
"       ..03877             ;;;;;;;;;;;;:>>>><22246677830..      ",
"      ..0038766           ;;;=======;;;;::>>><22446678300..     ",
"      ..03876664         ;;==*******==;;;::>><<2246667830..     ",
"     ...038766422       ;;=***********=;;;::>><2224667830...    ",
"     ..0387766422<     ;==****%%%%%****==;;:>>><2244677830..    ",
"     ..0387664222<>>:;;;=***%%$$$$$%%***=;;;:>><2224667830..    ",
"     ..038766422<>>:;;;=***%$$$$$$$$$%***=;;;:>><224667830..    ",
"    ..0038766422<>>:;;=***%$$$@@@@@$$$%***=;;:>><2246678300..   ",
"    ..038766422<<>>:;;=**%$$$@@+++@@$$$%**=;;:>><<224667830..   ",
"    ..038766422<>>:;;=***%$$@+++++++@$$%***=;;:>><224667830..   ",
"    ..038766422<>>:;;=**%$$@@++ooo++@@$$%**=;;:>><224667830..   ",
"    ..038766422<>>:;;=**%$$@++ooXoo++@$$%**=;;:>><224667830..   ",
"    ..038766422<>>:;;=**%$$@++oXXXo++@$$%**=;;:>><224667830..   ",
"    ..038766422<>>:;;=**%$$@++ooXoo++@$$%**=;;:>><224667830..   ",
"    ..038766422<>>:;;=**%$$@@++ooo++@@$$%**=;;:>><224667830..   ",
"    ..038766422<>>:;;=***%$$@+++++++@$$%***=;;:>><224667830..   ",
"    ..038766422<<>>:;;=**%$$$@@+++@@$$$%**=;;:>><<224667830..   ",
"    ..0038766422<>>:;;=***%$$$@@@@@$$$%***=;;:>><2246678300..   ",
"     ..038766422<>>:;;;=***%$$$$$$$$$%***=;;;:>><224667830..    ",
"     ..0387664222<>>:;;;=***%%$$$$$%%***=;;;:>><2224667830..    ",
"     ..0387766422<>>>:;;==****%%%%%****==;;:>>><2246677830..    ",
"     ...0387664222<>>::;;;=***********=;;;::>><2224667830...    ",
"      ..0387666422<<>>::;;;==*******==;;;::>><<2246667830..     ",
"      ..00387664422<>>>::;;;;=======;;;;::>>><22446678300..     ",
"       ..03877664222<>>>>:;;;;;;;;;;;;;:>>>><22246677830..      ",
"       ..003876664222<<>>>:::;;;;;;;:::>>><<222466678300..      ",
"        ..038876664222<<>>>>>:::::::>>>>><<222466678830..       ",
"        ...0388766642222<<>>>>>>>>>>>>><<2222466678830...       ",
"         ..q03877666442222<<<>>>>>>><<<22224466677830q..        ",
"          ..0038776664422222<<<<<<<<<2222244666778300..         ",
"           ..003887666644222222222222222446666788300..          ",
"           ...0038877666644422222222244466667788300...          ",
"            ...00388776666664444444446666667788300...           ",
"             ...q0338877766666666666666677788330q...            ",
"               ...00338877776666666667777883300...              ",
"                ...000338888777777777888833000...               ",
"                 ....00033338888888883333000....                ",
"                   .....00003333333330000.....                  ",
"                     ......00000000000......                    ",
"                       ...................                      ",
"                           ...........                          ",
"                                                                ",
"                                                                ",
"                                                                "
};
