/* XPM */
static char *dbcca13433184d4cd437befcb37fbf90MupKBcCjMQSsUO1G[] = {
/* columns rows colors chars-per-pixel */
"64 64 6 1 ",
"  c None",
". c #3B2F2F",
"X c #70360E",
"o c SaddleBrown",
"O c #A85C1E",
"+ c gold",
/* pixels */
"                                                                ",
"                                                                ",
"      .....................................................     ",
"      .....................................................     ",
"      .....................................................     ",
"      ...OooXXOOooXXOOooXXOOooXXOOooXXOOooXXOOooXXOOooXX...     ",
"      ...OooXXOOooXXOOooXXOOooXXOOooXXOOooXXOOooXXOOooXX...     ",
"      ...OooXXOOooXXOOooXXOOooXXOOooXXOOooXXOOooXXOOooXX...     ",
"      ...OooXXOOooXXOOooXXOOooXXOOooXXOOooXXOOooXXOOooXX...     ",
"      ...OooXXOOooXXOOooXXOOooXXOOooXXOOooXXOOooXXOOooXX...     ",
"      ...OooXX.....................................OooXX...     ",
"      ...OooXX.OooXXOOooXXOOooXXOOooXXOOooXXOOooXX.OooXX...     ",
"      ...OooXX.OooXXOOooXXOOooXXOOooXXOOooXXOOooXX.OooXX...     ",
"      ...OooXX.OooXXOOooXXOOooXXOOooXXOOooXXOOooXX.OooXX...     ",
"      ...OooXX.OooXXOOooXXOOooXXOOooXXOOooXXOOooXX.OooXX...     ",
"      ...OooXX.OooXXOOooXXOOooXXOOooXXOOooXXOOooXX.OooXX...     ",
"      ...OooXX.OooXXOOooXXOOooXXOOooXXOOooXXOOooXX.OooXX...     ",
"      ...OooXX.OooXXOOooXXOOooXXOOooXXOOooXXOOooXX.OooXX...     ",
"      ...OooXX.OooXXOOooXXOOooXXOOooXXOOooXXOOooXX.OooXX...     ",
"      ...OooXX.OooXXOOooXXOOooXXOOooXXOOooXXOOooXX.OooXX...     ",
"      ...OooXX.OooXXOOooXXOOooXXOOooXXOOooXXOOooXX.OooXX...     ",
"      ...OooXX.OooXXOOooXXOOooXXOOooXXOOooXXOOooXX.OooXX...     ",
"      ...OooXX.OooXXOOooXXOOooXXOOooXXOOooXXOOooXX.OooXX...     ",
"      ...OooXX.OooXXOOooXXOOooXXOOooXXOOooXXOOooXX.OooXX...     ",
"      ...OooXX.....................................OooXX...     ",
"      ...OooXXOOooXXOOooXXOOooXXOOooXXOOooXXOOooXXOOooXX...     ",
"      ...OooXXOOooXXOOooXXOOooXXOOooXXOOooXXOOooXXOOooXX...     ",
"      ...OooXXOOooXXOOooXXOOooXXOOooXXOOooXXOOooXXOOooXX...     ",
"      ...OooXXOOooXXOOooXXOOooXXOOooXXOOooXXOOooXXOOooXX...     ",
"      ...OooXXOOooXXOOooXXOOooXXOOooXXOOooXXOOooXXOOooXX...     ",
"      ...OooXXOOooXXOOooXXOOooXXOOooXXOOooXXO+++XXOOooXX...     ",
"      ...OooXXOOooXXOOooXXOOooXXOOooXXOOooXX+++++XOOooXX...     ",
"      ...OooXXOOooXXOOooXXOOooXXOOooXXOOooXX+++++XOOooXX...     ",
"      ...OooXXOOooXXOOooXXOOooXXOOooXXOOooXX+++++XOOooXX...     ",
"      ...OooXXOOooXXOOooXXOOooXXOOooXXOOooXXO+++XXOOooXX...     ",
"      ...OooXXOOooXXOOooXXOOooXXOOooXXOOooXXOOooXXOOooXX...     ",
"      ...OooXXOOooXXOOooXXOOooXXOOooXXOOooXXOOooXXOOooXX...     ",
"      ...OooXXOOooXXOOooXXOOooXXOOooXXOOooXXOOooXXOOooXX...     ",
"      ...OooXXOOooXXOOooXXOOooXXOOooXXOOooXXOOooXXOOooXX...     ",
"      ...OooXXOOooXXOOooXXOOooXXOOooXXOOooXXOOooXXOOooXX...     ",
"      ...OooXX.....................................OooXX...     ",
"      ...OooXX.OooXXOOooXXOOooXXOOooXXOOooXXOOooXX.OooXX...     ",
"      ...OooXX.OooXXOOooXXOOooXXOOooXXOOooXXOOooXX.OooXX...     ",
"      ...OooXX.OooXXOOooXXOOooXXOOooXXOOooXXOOooXX.OooXX...     ",
"      ...OooXX.OooXXOOooXXOOooXXOOooXXOOooXXOOooXX.OooXX...     ",
"      ...OooXX.OooXXOOooXXOOooXXOOooXXOOooXXOOooXX.OooXX...     ",
"      ...OooXX.OooXXOOooXXOOooXXOOooXXOOooXXOOooXX.OooXX...     ",
"      ...OooXX.OooXXOOooXXOOooXXOOooXXOOooXXOOooXX.OooXX...     ",
"      ...OooXX.OooXXOOooXXOOooXXOOooXXOOooXXOOooXX.OooXX...     ",
"      ...OooXX.OooXXOOooXXOOooXXOOooXXOOooXXOOooXX.OooXX...     ",
"      ...OooXX.OooXXOOooXXOOooXXOOooXXOOooXXOOooXX.OooXX...     ",
"      ...OooXX.OooXXOOooXXOOooXXOOooXXOOooXXOOooXX.OooXX...     ",
"      ...OooXX.OooXXOOooXXOOooXXOOooXXOOooXXOOooXX.OooXX...     ",
"      ...OooXX.OooXXOOooXXOOooXXOOooXXOOooXXOOooXX.OooXX...     ",
"      ...OooXX.....................................OooXX...     ",
"      ...OooXXOOooXXOOooXXOOooXXOOooXXOOooXXOOooXXOOooXX...     ",
"      ...OooXXOOooXXOOooXXOOooXXOOooXXOOooXXOOooXXOOooXX...     ",
"      ...OooXXOOooXXOOooXXOOooXXOOooXXOOooXXOOooXXOOooXX...     ",
"      ...OooXXOOooXXOOooXXOOooXXOOooXXOOooXXOOooXXOOooXX...     ",
"      ...OooXXOOooXXOOooXXOOooXXOOooXXOOooXXOOooXXOOooXX...     ",
"      .....................................................     ",
"      .....................................................     ",
"      .....................................................     ",
"                                                                "
};
