/* XPM */
static char *_724482e87044b55f880b98a804d3ab1bG46A4RigJ7o78iK[] = {
/* columns rows colors chars-per-pixel */
"64 64 8 1 ",
"  c None",
". c black",
"X c #0F0F14",
"o c #3B2F2F",
"O c #70360E",
"+ c SaddleBrown",
"@ c #A85C1E",
"# c gold",
/* pixels */
"                                                                ",
"                                                                ",
"      ooooooooooooooooooooooooooooooooooooooooooooooooooooo     ",
"      ooooooooooooooooooooooooooooooooooooooooooooooooooooo     ",
"      ooooooooooooooooooooooooooooooooooooooooooooooooooooo     ",
"      ooo                                               ooo     ",
"      ooo ..XXXXXXXXXXXXXXXXXXXXXXXXXXXXXXXXXXXXXXXXXXX ooo     ",
"      ooo .+..XXXXXXXXXXXXXXXXXXXXXXXXXXXXXXXXXXXXXXXXX ooo     ",
"      ooo .+++..XXXXXXXXXXXXXXXXXXXXXXXXXXXXXXXXXXXXXXX ooo     ",
"      ooo .+++++...XXXXXXXXXXXXXXXXXXXXXXXXXXXXXXXXXXXX ooo     ",
"      ooo .++++++++..XXXXXXXXXXXXXXXXXXXXXXXXXXXXXXXXXX ooo     ",
"      ooo .++++++++++..XXXXXXXXXXXXXXXXXXXXXXXXXXXXXXXX ooo     ",
"      ooo .+@+O@++O++@O..XXXXXXXXXXXXXXXXXXXXXXXXXXXXXX ooo     ",
"      ooo .+@+O@++O++@O+.XXXXXXXXXXXXXXXXXXXXXXXXXXXXXX ooo     ",
"      ooo .+@+O@++O++@O+.XXXXXXXXXXXXXXXXXXXXXXXXXXXXXX ooo     ",
"      ooo .+@+O@++O++@O+.XXXXXXXXXXXXXXXXXXXXXXXXXXXXXX ooo     ",
"      ooo .+@+O@++O++@O+.XXXXXXXXXXXXXXXXXXXXXXXXXXXXXX ooo     ",
"      ooo .+@+O@++O++@O+.XXXXXXXXXXXXXXXXXXXXXXXXXXXXXX ooo     ",
"      ooo .+@+O@++O++@O+.XXXXXXXXXXXXXXXXXXXXXXXXXXXXXX ooo     ",
"      ooo .+@+O@++O++@O+.XXXXXXXXXXXXXXXXXXXXXXXXXXXXXX ooo     ",
"      ooo .+@+O@++O++@O+.XXXXXXXXXXXXXXXXXXXXXXXXXXXXXX ooo     ",
"      ooo .+@+O@++O++@O+.XXXXXXXXXXXXXXXXXXXXXXXXXXXXXX ooo     ",
"      ooo .+@+O@++O++@O+.XXXXXXXXXXXXXXXXXXXXXXXXXXXXXX ooo     ",
"      ooo .@++O++@O+@+O.XXXXXXXXXXXXXXXXXXXXXXXXXXXXXXX ooo     ",
"      ooo .@++O++@O+@+O.XXXXXXXXXXXXXXXXXXXXXXXXXXXXXXX ooo     ",
"      ooo .@++O++@O+@+O.XXXXXXXXXXXXXXXXXXXXXXXXXXXXXXX ooo     ",
"      ooo .@++O++@O+@+O.XXXXXXXXXXXXXXXXXXXXXXXXXXXXXXX ooo     ",
"      ooo .@++O++@O+@+O.XXXXXXXXXXXXXXXXXXXXXXXXXXXXXXX ooo     ",
"      ooo .@++O++@O+@+O.XXXXXXXXXXXXXXXXXXXXXXXXXXXXXXX ooo     ",
"      ooo .@++O++@O+@+O.XXXXXXXXXXXXXXXXXXXXXXXXXXXXXXX ooo     ",
"      ooo .@++O++@O+@+O.XXXXXXXXXXXXXXXXXXXXXXXXXXXXXXX ooo     ",
"      ooo .@++O++@O+@+O.XXXXXXXXXXXXXXXXXXXXXXXXXXXXXXX ooo     ",
"      ooo .@++O++@###+O.XXXXXXXXXXXXXXXXXXXXXXXXXXXXXXX ooo     ",
"      ooo .@+O@++#####+.XXXXXXXXXXXXXXXXXXXXXXXXXXXXXXX ooo     ",
"      ooo .@+O@++#####+.XXXXXXXXXXXXXXXXXXXXXXXXXXXXXXX ooo     ",
"      ooo .@+O@++#####+.XXXXXXXXXXXXXXXXXXXXXXXXXXXXXXX ooo     ",
"      ooo .@+O@++O###O+.XXXXXXXXXXXXXXXXXXXXXXXXXXXXXXX ooo     ",
"      ooo .@+O@++O++@O+.XXXXXXXXXXXXXXXXXXXXXXXXXXXXXXX ooo     ",
"      ooo .@+O@++O++@O+.XXXXXXXXXXXXXXXXXXXXXXXXXXXXXXX ooo     ",
"      ooo .@+O@++O++@O+.XXXXXXXXXXXXXXXXXXXXXXXXXXXXXXX ooo     ",
"      ooo .@+O@++O++@O+.XXXXXXXXXXXXXXXXXXXXXXXXXXXXXXX ooo     ",
"      ooo .@+O@++O++@O+.XXXXXXXXXXXXXXXXXXXXXXXXXXXXXXX ooo     ",
"      ooo .@+O@++O++@O+.XXXXXXXXXXXXXXXXXXXXXXXXXXXXXXX ooo     ",
"      ooo .@+O@++O++@O+.XXXXXXXXXXXXXXXXXXXXXXXXXXXXXXX ooo     ",
"      ooo @++O++@O+@+O.XXXXXXXXXXXXXXXXXXXXXXXXXXXXXXXX ooo     ",
"      ooo @++O++@O+@+O.XXXXXXXXXXXXXXXXXXXXXXXXXXXXXXXX ooo     ",
"      ooo @++O++@O+@+O.XXXXXXXXXXXXXXXXXXXXXXXXXXXXXXXX ooo     ",
"      ooo @++O++@O+@+O.XXXXXXXXXXXXXXXXXXXXXXXXXXXXXXXX ooo     ",
"      ooo @++O++@O+@+O.XXXXXXXXXXXXXXXXXXXXXXXXXXXXXXXX ooo     ",
"      ooo @++O++@O+@+O.XXXXXXXXXXXXXXXXXXXXXXXXXXXXXXXX ooo     ",
"      ooo @++O++@O+@+O.XXXXXXXXXXXXXXXXXXXXXXXXXXXXXXXX ooo     ",
"      ooo @++O++@O+@+O.XXXXXXXXXXXXXXXXXXXXXXXXXXXXXXXX ooo     ",
"      ooo @++O++@O+@+O.XXXXXXXXXXXXXXXXXXXXXXXXXXXXXXXX ooo     ",
"      ooo @++O++@O+@+O.XXXXXXXXXXXXXXXXXXXXXXXXXXXXXXXX ooo     ",
"      ooo @++O++@O+@+O.XX               XXXXXXXXXXXXXXX ooo     ",
"      ooo .+++++++..                         XXXXXXXXXX ooo     ",
"      ooo .++++...                             XXXXXXXX ooo     ",
"      ooo .+...XX                               XXXXXXX ooo     ",
"      ooo ..XXXX                                 XXXXXX ooo     ",
"      ooo                                               ooo     ",
"      oooooooooooo                             oooooooooooo     ",
"      oooooooooooooo                         oooooooooooooo     ",
"      ooooooooooooooooooo               ooooooooooooooooooo     ",
"                                                                "
};
