/* XPM */
static char *_4da109aae664cf0e72b16694e5eeb4dFESr4EcM0ckaIiho[] = {
/* columns rows colors chars-per-pixel */
"64 64 8 1 ",
"  c None",
". c black",
"X c #282828",
"o c gold",
"O c #0046AA",
"+ c #005ADC",
"@ c #E6C8AA",
"# c white",
/* pixels */
"                                                                ",
"                                                                ",
"                                                                ",
"                                                                ",
"                                                                ",
"                                                                ",
"                              .....                             ",
"                            ..@@@@@..                           ",
"                           .@@@@@@@@@.                          ",
"                          .@@@@@@@@@@@.                         ",
"                         .@@@@@@@@@@@@@.                        ",
"                        .@@@@@@@@@@@@@@@.                       ",
"                        .@@@@@@@@@@@@@@@.                       ",
"                       .@@@@@@@@@@@@@@@@@.                      ",
"                       .@@...@@@@@...@@@@.                      ",
"                       .@.#...@@@.#...@@@.                      ",
"                       .@.#...@@@.#...@@@.                      ",
"                       .@.###.@@@.###.@@@.                      ",
"                       .@@...@@@@@...@@@@.                      ",
"                       .@@@@@@@@@@@@@@@@@.                      ",
"                        .@@@@@@@@@@@@@@@.                       ",
"                        .@@@@@@@@@@@@@@@.                       ",
"                         .@@@.......@@@.                        ",
"                          .@@@@@@@@@@@.                         ",
"                    ........@@@@@@@@@........                   ",
"                    .+++++++..@@@@@..+++++++.                   ",
"              ..... .+++++++++.....+++++++++. .....             ",
"              .+++. .+++++++++++++++++++++++. .+++.             ",
"              .+++. .+++++++++++++++++++++++. .+++.             ",
"              .+++. .+++++++++++++++++++++++. .+++.             ",
"              .+++. .+++++++++++++++++++++++. .+++.             ",
"              .+++. .+++++++++++++++++++++++. .+++.             ",
"              .+++. .+++++++++++++++++++++++. .+++.             ",
"              .+++. .+++++++++++++++++++++++. .+++.             ",
"              .+++. .+++++++++++++++++++++++. .+++.             ",
"              .+++. .+++++++++++++++++++++++. .+++.             ",
"              .+++. .+++++++++++++++++++++++. .+++.             ",
"              .+++. .+++++++++++++++++++++++. .+++.             ",
"              .+++. ......................... .+++.             ",
"              .+++. .ooooooooooooooooooooooo. .+++.             ",
"              .+++. ......................... .+++.             ",
"              .+++. ..OOOOOOOOOO.+.OOOOOOOO.. .+++.             ",
"              ..... ..OOOOOOOOOO.+.OOOOOOOO.. .....             ",
"                    ..OOOOOOOOOO.+.OOOOOOOO..                   ",
"                    ..OOOOOOOOOO.+.OOOOOOOO..                   ",
"                    ..OOOOOOOOOO.+.OOOOOOOO..                   ",
"                    ..OOOOOOOOOO.+.OOOOOOOO..                   ",
"                    ..OOOOOOOOOO.+.OOOOOOOO..                   ",
"                    ..OOOOOOOOOO.+.OOOOOOOO..                   ",
"                    ..OOOOOOOOOO.+.OOOOOOOO..                   ",
"                    ..OOOOOOOOOO.+.OOOOOOOO..                   ",
"                    ..OOOOOOOOOO.+.OOOOOOOO..                   ",
"                    ..OOOOOOOOOO.+.OOOOOOOO..                   ",
"                    ..OOOOOOOOOO.+.OOOOOOOO..                   ",
"                    ..OOOOOOOOOO...OOOOOOOO..                   ",
"                     .OOOOOOOOOO. .OOOOOOOO.                    ",
"                     .OOOOOOOOOO. .OOOOOOOO.                    ",
"                     .OOOOOOOOOO. .OOOOOOOO.                    ",
"                    .........................                   ",
"                    .XXXXXXXXXXXX.XXXXXXXXXX.                   ",
"                    .XXXXXXXXXXXX.XXXXXXXXXX.                   ",
"                    .XXXXXXXXXXXX.XXXXXXXXXX.                   ",
"                    .........................                   ",
"                                                                "
};
