/* XPM */
static char *_e4597c41bfa4a44946fdce5aeb7989alJoDYz6tJy32Zq0f[] = {
/* columns rows colors chars-per-pixel */
"64 64 8 1 ",
"  c None",
". c black",
"X c #282828",
"o c gold",
"O c #0046AA",
"+ c #005ADC",
"@ c #E6C8AA",
"# c white",
/* pixels */
"                                                                ",
"                                                                ",
"                                                                ",
"                                                                ",
"                                                                ",
"                                                                ",
"                                  .....                         ",
"                                ..@@@@@..                       ",
"                               .@@@@@@@@@.                      ",
"                              .@@@@@@@@@@@.                     ",
"                             .@@@@@@@@@@@@@.                    ",
"                            .@@@@@@@@@@@@@@@.                   ",
"                            .@@@@@@@@@@@@@@@.                   ",
"                           .@@@@@@@@@@@@@@@@@.                  ",
"                           .@@@@@@@@@@@...@@@.                  ",
"                           .@@@@@@@@@@.#...@@.                  ",
"                           .@@@@@@@@@@.#...@@.                  ",
"                           .@@@@@@@@@@.###..@.                  ",
"                           .@@@@@@@@@@@...@@..                  ",
"                           .@@@@@@@@@@@@@@@@@.                  ",
"                            .@@@@@@@@@@@@@@@.                   ",
"                            .@@@@@@@@@@@@@@@.                   ",
"                             .@@@@@@@@@@@@@.                    ",
"                              .@@@@@@@@@@@.                     ",
"                      ..........@@@@@@@@@......                 ",
"                      .+++++++++..@@@@@..+++++.                 ",
"                      .+++++++++++.....+++++++. ......          ",
"                      .+++++++++++++++++++++++. .++++.          ",
"                ....  .+++++++++++++++++++++++. .++++.          ",
"                .OO.  .+++++++++++++++++++++++. .++++.          ",
"                .OO.  .+++++++++++++++++++++++. .++++.          ",
"                .OO.  .+++++++++++++++++++++++. .++++.          ",
"                .OO.  .+++++++++++++++++++++++. .++++.          ",
"                .OO.  .+++++++++++++++++++++++. .++++.          ",
"                .OO.  .+++++++++++++++++++++++. .++++.          ",
"                .OO.  .+++++++++++++++++++++++. .++++.          ",
"                .OO.  .+++++++++++++++++++++++. .++++.          ",
"                .OO.  .+++++++++++++++++++++++. .++++.          ",
"                .OO.  ......................... .++++.          ",
"                .OO.  .ooooooooooooooooooooooo. .++++.          ",
"                ....  ......................... .++++.          ",
"                      ..OOOOOOOOOO.+.OOOOOOOO.. .++++.          ",
"                      ..OOOOOOOOOO.+.OOOOOOOO.. .++++.          ",
"                      ..OOOOOOOOOO.+.OOOOOOOO.. .++++.          ",
"                      ..OOOOOOOOOO.+.OOOOOOOO.. ......          ",
"                      ..OOOOOOOOOO.+.OOOOOOOO..                 ",
"                      ..OOOOOOOOOO.+.OOOOOOOO..                 ",
"                      ..OOOOOOOOOO.+.OOOOOOOO..                 ",
"                      ..OOOOOOOOOO.+.OOOOOOOO..                 ",
"                      ..OOOOOOOOOO.+.OOOOOOOO..                 ",
"                      ..OOOOOOOOOO.+.OOOOOOOO..                 ",
"                      ..OOOOOOOOOO.+.OOOOOOOO..                 ",
"                      ..OOOOOOOOOO.+.OOOOOOOO..                 ",
"                      ..OOOOOOOOOO.+.OOOOOOOO..                 ",
"                      ..OOOOOOOOOO...OOOOOOOO..                 ",
"                       .OOOOOOOOOO. .OOOOOOOO.                  ",
"                       .OOOOOOOOOO. .OOOOOOOO.                  ",
"                       .OOOOOOOOOO. .OOOOOOOO.                  ",
"                      .........................                 ",
"                      .XXXXXXXXXXXX.XXXXXXXXXX.                 ",
"                      .XXXXXXXXXXXX.XXXXXXXXXX.                 ",
"                      .XXXXXXXXXXXX.XXXXXXXXXX.                 ",
"                      .........................                 ",
"                                                                "
};
