/* XPM */
static char *d286a71e9e594b0196f92dde7756f7d8PxrxcVDIUrfRjOJr[] = {
/* columns rows colors chars-per-pixel */
"64 64 7 1 ",
"  c None",
". c black",
"X c #282828",
"o c gold",
"O c #0046AA",
"+ c #005ADC",
"@ c #E6C8AA",
/* pixels */
"                                                                ",
"                                                                ",
"                                                                ",
"                                                                ",
"                                                                ",
"                                                                ",
"                              .....                             ",
"                            ..@@@@@..                           ",
"                           .@@@@@@@@@.                          ",
"                          .@@@@@@@@@@@.                         ",
"                         .@@@@@@@@@@@@@.                        ",
"                        .@@@@@@@@@@@@@@@.                       ",
"                        .@@@@@@@@@@@@@@@.                       ",
"                       .@@@@@@@@@@@@@@@@@.                      ",
"                       .@@@@@@@@@@@@@@@@@.                      ",
"                       .@@@@@@@@@@@@@@@@@.                      ",
"                       .@@@@@@@@@@@@@@@@@.                      ",
"                       .@@@@@@@@@@@@@@@@@.                      ",
"                       .@@@@@@@@@@@@@@@@@.                      ",
"                       .@@@@@@@@@@@@@@@@@.                      ",
"                        .@@@@@@@@@@@@@@@.                       ",
"                        .@@@@@@@@@@@@@@@.                       ",
"                         .@@@@@@@@@@@@@.                        ",
"                          .@@@@@@@@@@@.                         ",
"                    ........@@@@@@@@@........                   ",
"                    .+++++++.........+++++++.                   ",
"              ..... .+++++++++.....+++++++++. .....             ",
"              .+++. .+++++++++++++++++++++++. .+++.             ",
"              .+++. .+++++++++++++++++++++++. .+++.             ",
"              .+++. .+++++++++++++++++++++++. .+++.             ",
"              .+++. .+++++++++++++++++++++++. .+++.             ",
"              .+++. .+++++++++++++++++++++++. .+++.             ",
"              .+++. .+++++++++++++++++++++++. .+++.             ",
"              .+++. .+++++++++++++++++++++++. .+++.             ",
"              .+++. .+++++++++++++++++++++++. .+++.             ",
"              .+++. .+++++++++++++++++++++++. .+++.             ",
"              .+++. .+++++++++++++++++++++++. .+++.             ",
"              .+++. .+++++++++++++++++++++++. .+++.             ",
"              .+++. ......................... .+++.             ",
"              .+++. .ooooooooooooooooooooooo. .+++.             ",
"              .+++. ......................... .+++.             ",
"              .+++. ..OOOOOOOOOO.+.OOOOOOOO.. .+++.             ",
"              .+++. ..OOOOOOOOOO.+.OOOOOOOO.. .+++.             ",
"              .+++. ..OOOOOOOOOO.+.OOOOOOOO.. .+++.             ",
"              ..... ..OOOOOOOOOO.+.OOOOOOOO.. .....             ",
"                    ..OOOOOOOOOO.+.OOOOOOOO..                   ",
"                    ..OOOOOOOOOO.+.OOOOOOOO..                   ",
"                    ..OOOOOOOOOO.+.OOOOOOOO..                   ",
"                    ..OOOOOOOOOO.+.OOOOOOOO..                   ",
"                    ..OOOOOOOOOO.+.OOOOOOOO..                   ",
"                    ..OOOOOOOOOO.+.OOOOOOOO..                   ",
"                    ..OOOOOOOOOO.+.OOOOOOOO..                   ",
"                    ..OOOOOOOOOO.+.OOOOOOOO..                   ",
"                    ..OOOOOOOOOO.+.OOOOOOOO..                   ",
"                    ..OOOOOOOOOO...OOOOOOOO..                   ",
"                     .OOOOOOOOOO. .OOOOOOOO.                    ",
"                     .OOOOOOOOOO. .OOOOOOOO.                    ",
"                     .OOOOOOOOOO. .OOOOOOOO.                    ",
"                    .........................                   ",
"                    .XXXXXXXXXXXX.XXXXXXXXXX.                   ",
"                    .XXXXXXXXXXXX.XXXXXXXXXX.                   ",
"                    .XXXXXXXXXXXX.XXXXXXXXXX.                   ",
"                    .........................                   ",
"                                                                "
};
