/* XPM */
static char *_b2bac42afb34157df4fdee0c6383c5e3edGsZmESm7BCtm0[] = {
/* columns rows colors chars-per-pixel */
"64 64 8 1 ",
"  c None",
". c black",
"X c #282828",
"o c gold",
"O c #0046AA",
"+ c #005ADC",
"@ c #E6C8AA",
"# c white",
/* pixels */
"                                                                ",
"                                                                ",
"                                                                ",
"                                                                ",
"                                                                ",
"                                                                ",
"                          .....                                 ",
"                        ..@@@@@..                               ",
"                       .@@@@@@@@@.                              ",
"                      .@@@@@@@@@@@.                             ",
"                     .@@@@@@@@@@@@@.                            ",
"                    .@@@@@@@@@@@@@@@.                           ",
"                    .@@@@@@@@@@@@@@@.                           ",
"                   .@@@@@@@@@@@@@@@@@.                          ",
"                   .@@@...@@@@@@@@@@@.                          ",
"                   .@@...#.@@@@@@@@@@.                          ",
"                   .@@...#.@@@@@@@@@@.                          ",
"                   .@@.###.@@@@@@@@@@.                          ",
"                   ...@...@@@@@@@@@@@.                          ",
"                   .@@@@@@@@@@@@@@@@@.                          ",
"                    .@@@@@@@@@@@@@@@.                           ",
"                    .@@@@@@@@@@@@@@@.                           ",
"                     .@@@@@@@@@@@@@.                            ",
"                      .@@@@@@@@@@@.                             ",
"                  ......@@@@@@@@@..........                     ",
"                  .+++++..@@@@@..+++++++++.                     ",
"           ...... .+++++++.....+++++++++++.                     ",
"           .++++. .+++++++++++++++++++++++.                     ",
"           .++++. .+++++++++++++++++++++++.  ....               ",
"           .++++. .+++++++++++++++++++++++.  .OO.               ",
"           .++++. .+++++++++++++++++++++++.  .OO.               ",
"           .++++. .+++++++++++++++++++++++.  .OO.               ",
"           .++++. .+++++++++++++++++++++++.  .OO.               ",
"           .++++. .+++++++++++++++++++++++.  .OO.               ",
"           .++++. .+++++++++++++++++++++++.  .OO.               ",
"           .++++. .+++++++++++++++++++++++.  .OO.               ",
"           .++++. .+++++++++++++++++++++++.  .OO.               ",
"           .++++. .+++++++++++++++++++++++.  .OO.               ",
"           .++++. .........................  .OO.               ",
"           .++++. .ooooooooooooooooooooooo.  .OO.               ",
"           .++++. .........................  ....               ",
"           .++++. ..OOOOOOOOOO.+.OOOOOOOO..                     ",
"           .++++. ..OOOOOOOOOO.+.OOOOOOOO..                     ",
"           .++++. ..OOOOOOOOOO.+.OOOOOOOO..                     ",
"           ...... ..OOOOOOOOOO.+.OOOOOOOO..                     ",
"                  ..OOOOOOOOOO.+.OOOOOOOO..                     ",
"                  ..OOOOOOOOOO.+.OOOOOOOO..                     ",
"                  ..OOOOOOOOOO.+.OOOOOOOO..                     ",
"                  ..OOOOOOOOOO.+.OOOOOOOO..                     ",
"                  ..OOOOOOOOOO.+.OOOOOOOO..                     ",
"                  ..OOOOOOOOOO.+.OOOOOOOO..                     ",
"                  ..OOOOOOOOOO.+.OOOOOOOO..                     ",
"                  ..OOOOOOOOOO.+.OOOOOOOO..                     ",
"                  ..OOOOOOOOOO.+.OOOOOOOO..                     ",
"                  ..OOOOOOOOOO...OOOOOOOO..                     ",
"                   .OOOOOOOOOO. .OOOOOOOO.                      ",
"                   .OOOOOOOOOO. .OOOOOOOO.                      ",
"                   .OOOOOOOOOO. .OOOOOOOO.                      ",
"                  .........................                     ",
"                  .XXXXXXXXXXXX.XXXXXXXXXX.                     ",
"                  .XXXXXXXXXXXX.XXXXXXXXXX.                     ",
"                  .XXXXXXXXXXXX.XXXXXXXXXX.                     ",
"                  .........................                     ",
"                                                                "
};
