/* XPM */
static char *_48a1226d76a4acfe48b4a61b64571eaXciOdPmfZrDDaPTG[] = {
/* columns rows colors chars-per-pixel */
"64 64 4 1 ",
"  c gray19",
". c #5A5A5A",
"X c gray48",
"o c #A0A0A0",
/* pixels */
"                                                                ",
"                                                                ",
"  oooooooooooooooooooooooooooo.  oooooooooooooooooooooooooooo.  ",
"  oXXXXXXXXXXXXXXXXXXXXXXXXXXX.  oXXXXXXXXXXXXXXXXXXXXXXXXXXX.  ",
"  oXXXXXXXXXXXXXXXXXXXXXXXXXXX.  oXXXXXXXXXXXXXXXXXXXXXXXXXXX.  ",
"  oXXXXXXXXXXXXXXXXXXXXXXXXXXX.  oXXXXXXXXXXXXXXXXXXXXXXXXXXX.  ",
"  oXXXXXXXXXXXXXXXXXXXXXXXXXXX.  oXXXXXXXXXXXXXXXXXXXXXXXXXXX.  ",
"  oXXXXXXXXXXXXXXXXXXXXXXXXXXX.  oXXXXXXXXXXXXXXXXXXXXXXXXXXX.  ",
"  oXXXXXXXXXXXXXXXXXXXXXXXXXXX.  oXXXXXXXXXXXXXXXXXXXXXXXXXXX.  ",
"  oXXXXXXXXXXXXXXXXXXXXXXXXXXX.  oXXXXXXXXXXXXXXXXXXXXXXXXXXX.  ",
"  oXXXXXXXXXXXXXXXXXXXXXXXXXXX.  oXXXXXXXXXXXXXXXXXXXXXXXXXXX.  ",
"  oXXXXXXXXXXXXXXXXXXXXXXXXXXX.  oXXXXXXXXXXXXXXXXXXXXXXXXXXX.  ",
"  oXXXXXXXXXXXXXXXXXXXXXXXXXXX.  oXXXXXXXXXXXXXXXXXXXXXXXXXXX.  ",
"  oXXXXXXXXXXXXXXXXXXXXXXXXXXX.  oXXXXXXXXXXXXXXXXXXXXXXXXXXX.  ",
"  oXXXXXXXXXXXXXXXXXXXXXXXXXXX.  oXXXXXXXXXXXXXXXXXXXXXXXXXXX.  ",
"  oXXXXXXXXXXXXXXXXXXXXXXXXXXX.  oXXXXXXXXXXXXXXXXXXXXXXXXXXX.  ",
"  oXXXXXXXXXXXXXXXXXXXXXXXXXXX.  oXXXXXXXXXXXXXXXXXXXXXXXXXXX.  ",
"  oXXXXXXXXXXXXXXXXXXXXXXXXXXX.  oXXXXXXXXXXXXXXXXXXXXXXXXXXX.  ",
"  oXXXXXXXXXXXXXXXXXXXXXXXXXXX.  oXXXXXXXXXXXXXXXXXXXXXXXXXXX.  ",
"  oXXXXXXXXXXXXXXXXXXXXXXXXXXX.  oXXXXXXXXXXXXXXXXXXXXXXXXXXX.  ",
"  oXXXXXXXXXXXXXXXXXXXXXXXXXXX.  oXXXXXXXXXXXXXXXXXXXXXXXXXXX.  ",
"  oXXXXXXXXXXXXXXXXXXXXXXXXXXX.  oXXXXXXXXXXXXXXXXXXXXXXXXXXX.  ",
"  oXXXXXXXXXXXXXXXXXXXXXXXXXXX.  oXXXXXXXXXXXXXXXXXXXXXXXXXXX.  ",
"  oXXXXXXXXXXXXXXXXXXXXXXXXXXX.  oXXXXXXXXXXXXXXXXXXXXXXXXXXX.  ",
"  oXXXXXXXXXXXXXXXXXXXXXXXXXXX.  oXXXXXXXXXXXXXXXXXXXXXXXXXXX.  ",
"  oXXXXXXXXXXXXXXXXXXXXXXXXXXX.  oXXXXXXXXXXXXXXXXXXXXXXXXXXX.  ",
"  oXXXXXXXXXXXXXXXXXXXXXXXXXXX.  oXXXXXXXXXXXXXXXXXXXXXXXXXXX.  ",
"  oXXXXXXXXXXXXXXXXXXXXXXXXXXX.  oXXXXXXXXXXXXXXXXXXXXXXXXXXX.  ",
"  oXXXXXXXXXXXXXXXXXXXXXXXXXXX.  oXXXXXXXXXXXXXXXXXXXXXXXXXXX.  ",
"  oXXXXXXXXXXXXXXXXXXXXXXXXXXX.  oXXXXXXXXXXXXXXXXXXXXXXXXXXX.  ",
"  .............................  .............................  ",
"                                                                ",
"                                                                ",
"  oooooooooooooooooooooooooooo.  oooooooooooooooooooooooooooo.  ",
"  oXXXXXXXXXXXXXXXXXXXXXXXXXXX.  oXXXXXXXXXXXXXXXXXXXXXXXXXXX.  ",
"  oXXXXXXXXXXXXXXXXXXXXXXXXXXX.  oXXXXXXXXXXXXXXXXXXXXXXXXXXX.  ",
"  oXXXXXXXXXXXXXXXXXXXXXXXXXXX.  oXXXXXXXXXXXXXXXXXXXXXXXXXXX.  ",
"  oXXXXXXXXXXXXXXXXXXXXXXXXXXX.  oXXXXXXXXXXXXXXXXXXXXXXXXXXX.  ",
"  oXXXXXXXXXXXXXXXXXXXXXXXXXXX.  oXXXXXXXXXXXXXXXXXXXXXXXXXXX.  ",
"  oXXXXXXXXXXXXXXXXXXXXXXXXXXX.  oXXXXXXXXXXXXXXXXXXXXXXXXXXX.  ",
"  oXXXXXXXXXXXXXXXXXXXXXXXXXXX.  oXXXXXXXXXXXXXXXXXXXXXXXXXXX.  ",
"  oXXXXXXXXXXXXXXXXXXXXXXXXXXX.  oXXXXXXXXXXXXXXXXXXXXXXXXXXX.  ",
"  oXXXXXXXXXXXXXXXXXXXXXXXXXXX.  oXXXXXXXXXXXXXXXXXXXXXXXXXXX.  ",
"  oXXXXXXXXXXXXXXXXXXXXXXXXXXX.  oXXXXXXXXXXXXXXXXXXXXXXXXXXX.  ",
"  oXXXXXXXXXXXXXXXXXXXXXXXXXXX.  oXXXXXXXXXXXXXXXXXXXXXXXXXXX.  ",
"  oXXXXXXXXXXXXXXXXXXXXXXXXXXX.  oXXXXXXXXXXXXXXXXXXXXXXXXXXX.  ",
"  oXXXXXXXXXXXXXXXXXXXXXXXXXXX.  oXXXXXXXXXXXXXXXXXXXXXXXXXXX.  ",
"  oXXXXXXXXXXXXXXXXXXXXXXXXXXX.  oXXXXXXXXXXXXXXXXXXXXXXXXXXX.  ",
"  oXXXXXXXXXXXXXXXXXXXXXXXXXXX.  oXXXXXXXXXXXXXXXXXXXXXXXXXXX.  ",
"  oXXXXXXXXXXXXXXXXXXXXXXXXXXX.  oXXXXXXXXXXXXXXXXXXXXXXXXXXX.  ",
"  oXXXXXXXXXXXXXXXXXXXXXXXXXXX.  oXXXXXXXXXXXXXXXXXXXXXXXXXXX.  ",
"  oXXXXXXXXXXXXXXXXXXXXXXXXXXX.  oXXXXXXXXXXXXXXXXXXXXXXXXXXX.  ",
"  oXXXXXXXXXXXXXXXXXXXXXXXXXXX.  oXXXXXXXXXXXXXXXXXXXXXXXXXXX.  ",
"  oXXXXXXXXXXXXXXXXXXXXXXXXXXX.  oXXXXXXXXXXXXXXXXXXXXXXXXXXX.  ",
"  oXXXXXXXXXXXXXXXXXXXXXXXXXXX.  oXXXXXXXXXXXXXXXXXXXXXXXXXXX.  ",
"  oXXXXXXXXXXXXXXXXXXXXXXXXXXX.  oXXXXXXXXXXXXXXXXXXXXXXXXXXX.  ",
"  oXXXXXXXXXXXXXXXXXXXXXXXXXXX.  oXXXXXXXXXXXXXXXXXXXXXXXXXXX.  ",
"  oXXXXXXXXXXXXXXXXXXXXXXXXXXX.  oXXXXXXXXXXXXXXXXXXXXXXXXXXX.  ",
"  oXXXXXXXXXXXXXXXXXXXXXXXXXXX.  oXXXXXXXXXXXXXXXXXXXXXXXXXXX.  ",
"  oXXXXXXXXXXXXXXXXXXXXXXXXXXX.  oXXXXXXXXXXXXXXXXXXXXXXXXXXX.  ",
"  oXXXXXXXXXXXXXXXXXXXXXXXXXXX.  oXXXXXXXXXXXXXXXXXXXXXXXXXXX.  ",
"  .............................  .............................  ",
"                                                                ",
"                                                                "
};
